<svg width="20" height="20" viewBox="0 0 20 20" fill="none" xmlns="http://www.w3.org/2000/svg">
<path d="M5.83335 11.8167V2.50008C5.83335 2.27907 5.74556 2.06711 5.58928 1.91083C5.433 1.75455 5.22103 1.66675 5.00002 1.66675C4.77901 1.66675 4.56704 1.75455 4.41076 1.91083C4.25448 2.06711 4.16669 2.27907 4.16669 2.50008V11.8167C3.68406 11.9919 3.26707 12.3114 2.97239 12.7319C2.67771 13.1523 2.51962 13.6533 2.51962 14.1667C2.51962 14.6802 2.67771 15.1812 2.97239 15.6016C3.26707 16.0221 3.68406 16.3416 4.16669 16.5167V17.5001C4.16669 17.7211 4.25448 17.9331 4.41076 18.0893C4.56704 18.2456 4.77901 18.3334 5.00002 18.3334C5.22103 18.3334 5.433 18.2456 5.58928 18.0893C5.74556 17.9331 5.83335 17.7211 5.83335 17.5001V16.5167C6.31598 16.3416 6.73297 16.0221 7.02765 15.6016C7.32233 15.1812 7.48042 14.6802 7.48042 14.1667C7.48042 13.6533 7.32233 13.1523 7.02765 12.7319C6.73297 12.3114 6.31598 11.9919 5.83335 11.8167Z" fill="#FF7D0D"/>
<path d="M17.5 10.8334C17.4986 10.3176 17.3376 9.81491 17.0392 9.39419C16.7408 8.97347 16.3196 8.65534 15.8333 8.48341V2.50008C15.8333 2.27907 15.7455 2.06711 15.5893 1.91083C15.433 1.75455 15.221 1.66675 15 1.66675C14.779 1.66675 14.567 1.75455 14.4107 1.91083C14.2545 2.06711 14.1667 2.27907 14.1667 2.50008V8.48341C13.684 8.65859 13.2671 8.97811 12.9724 9.39855C12.6777 9.819 12.5196 10.32 12.5196 10.8334C12.5196 11.3468 12.6777 11.8478 12.9724 12.2683C13.2671 12.6887 13.684 13.0082 14.1667 13.1834V17.5001C14.1667 17.7211 14.2545 17.9331 14.4107 18.0893C14.567 18.2456 14.779 18.3334 15 18.3334C15.221 18.3334 15.433 18.2456 15.5893 18.0893C15.7455 17.9331 15.8333 17.7211 15.8333 17.5001V13.1834C16.3196 13.0115 16.7408 12.6934 17.0392 12.2726C17.3376 11.8519 17.4986 11.3492 17.5 10.8334Z" fill="#FF7D0D"/>
<path d="M12.5 4.16669C12.5013 3.70806 12.3764 3.25792 12.139 2.86552C11.9016 2.47313 11.5608 2.1536 11.1539 1.94191C10.7471 1.73022 10.2899 1.63453 9.83226 1.6653C9.37466 1.69608 8.93435 1.85214 8.55951 2.1164C8.18467 2.38066 7.88975 2.74294 7.70702 3.1636C7.52429 3.58425 7.46079 4.04706 7.52348 4.50139C7.58617 4.95571 7.77263 5.38403 8.06244 5.73948C8.35226 6.09493 8.73428 6.36381 9.16667 6.51669V17.5C9.16667 17.721 9.25447 17.933 9.41075 18.0893C9.56703 18.2456 9.77899 18.3334 10 18.3334C10.221 18.3334 10.433 18.2456 10.5893 18.0893C10.7455 17.933 10.8333 17.721 10.8333 17.5V6.51669C11.3196 6.34476 11.7408 6.02663 12.0392 5.60591C12.3376 5.18519 12.4986 4.68247 12.5 4.16669Z" fill="#FF7D0D"/>
</svg>
